<?xml version="1.0" encoding="UTF-8"?>
<!DOCTYPE svg PUBLIC "-//W3C//DTD SVG 1.1//EN" "http://www.w3.org/Graphics/SVG/1.1/DTD/svg11.dtd">
<!-- Creator: CorelDRAW -->
<svg xmlns="http://www.w3.org/2000/svg" xml:space="preserve" width="1295.01mm" height="310.764mm" version="1.1" style="shape-rendering:geometricPrecision; text-rendering:geometricPrecision; image-rendering:optimizeQuality; fill-rule:evenodd; clip-rule:evenodd"
viewBox="0 0 10466.94 2511.75"
 xmlns:xlink="http://www.w3.org/1999/xlink"
 xmlns:xodm="http://www.corel.com/coreldraw/odm/2003">
 <defs>
  <style type="text/css">
   <![CDATA[
    .fil2 {fill:#E8CC7A}
    .fil1 {fill:#E8CC7A;fill-rule:nonzero}
    .fil0 {fill:white;fill-rule:nonzero}
   ]]>
  </style>
 </defs>
 <g id="Katman_x0020_1">
  <metadata id="CorelCorpID_0Corel-Layer"/>
  <path class="fil0" d="M3247.85 1265.82l-449.89 0 0 -328.52 1311.99 0 0 328.52 -447.79 0 0 1136.22 -414.31 0 0 -1136.22zm1669.81 1165.52c-217.62,0 -386.76,-59.29 -507.43,-177.86 -120.67,-118.57 -181,-286.67 -181,-504.29l0 -811.89 414.31 0 0 799.33c0,234.36 92.77,351.54 278.3,351.54 184.14,0 276.21,-117.18 276.21,-351.54l0 -799.33 408.04 0 0 811.89c0,217.62 -60.33,385.71 -181,504.29 -120.67,118.57 -289.81,177.86 -507.43,177.86zm1609.12 -418.5l-225.99 0 0 389.2 -414.31 0 0 -1464.74 669.6 0c132.52,0 247.61,21.97 345.26,65.91 97.65,43.94 172.98,106.72 225.99,188.33 53.01,81.61 79.51,177.51 79.51,287.72 0,106.02 -24.76,198.44 -74.28,277.25 -49.52,78.82 -120.32,140.55 -212.39,185.19l315.97 460.35 -443.61 0 -265.75 -389.2zm261.56 -533.58c0,-68.36 -21.62,-121.36 -64.87,-159.03 -43.24,-37.66 -107.42,-56.5 -192.51,-56.5l-230.17 0 0 428.96 230.17 0c85.09,0 149.26,-18.48 192.51,-55.45 43.24,-36.97 64.87,-89.63 64.87,-157.98zm1211.55 391.29l-154.84 165.31 0 366.18 -410.13 0 0 -1464.74 410.13 0 0 608.91 567.06 -608.91 456.16 0 -598.45 648.67 629.84 816.07 -481.27 0 -418.5 -531.49zm1920.91 246.91l-619.38 0 -115.09 284.58 -422.68 0 646.58 -1464.74 408.04 0 648.67 1464.74 -431.05 0 -115.09 -284.58zm-121.36 -305.5l-188.32 -468.72 -188.33 468.72 376.65 0z"/>
  <g id="_1952600127856">
   <path class="fil1" d="M675.89 172.85l366.86 0 1619.99 2166.02 -366.86 0 -1619.99 -2166.02zm-345.08 -172.85l1036.11 1385.38 -0 0 299.15 400.01 0 0 543.25 726.36 798.56 0 -720.03 -962.74 -0 0 -15.91 -21.28 -358.46 -479.29 0.01 -0.01 -163.78 -219 0 -0 -620.33 -829.44 -798.56 0z"/>
   <polygon class="fil1" points="1684.31,962.58 1520.52,743.58 1520.52,743.58 1579.45,822.37 2334.28,0 2568.94,0 "/>
   <path class="fil1" d="M1255.44 1181.84l-1246.2 1329.92 234.66 0 1116.39 -1189.7c387.67,518.34 72.8,97.33 -104.85,-140.21z"/>
   <path class="fil1" d="M1989.24 1216.66c-30.09,-40.24 -266.99,-356.99 -104.86,-140.21l1008.9 -1076.45 234.66 0 -1138.71 1216.66z"/>
   <path class="fil1" d="M1578.86 1417.43l-1010.61 1094.33 234.66 0 880.8 -954.11c387.67,518.34 72.8,97.33 -104.85,-140.21z"/>
   <polygon class="fil2" points="2346.92,60.64 2334.28,0 3127.95,0 2956.68,171.27 2257.92,171.27 "/>
   <polygon class="fil2" points="781.03,2451.12 793.67,2511.75 -0,2511.75 171.27,2340.48 870.03,2340.48 "/>
  </g>
 </g>
</svg>
